# xmcd CD database file
#
# Track frame offsets:
#	150
#	11380
#	28562
#	51987
#	70710
#	95862
#	115457
#	135432
#	152335
#	168715
#	191540
#	214967
#	235027
#
# Disc length: 3504 seconds
#
# Revision: 0
# Processed by: cddbd v1.5.1PL0 Copyright (c) Steve Scherf et al.
# Submitted via: CDex 1.50
#
DISCID=ad0dae0d
DTITLE=Cut'N' Move - GET SERIOUS
DYEAR=1991
DGENRE=Pop
TTITLE0=Cut'N' Move Theme
TTITLE1=Get Serious
TTITLE2=How To Allow It
TTITLE3=Spread Love
TTITLE4=Message Of Love
TTITLE5=Girl You Got Me Working
TTITLE6=No Connection
TTITLE7=Cyclone Zone
TTITLE8=Say It Loud
TTITLE9=Jazz House
TTITLE10=Cut'N' Move Theme Bass Race Mix
TTITLE11=Get Serious Basement Boys Strip Mix
TTITLE12=Get Serious Hot Temptation Edit
EXTD=YEAR: 1991
EXTT0=
EXTT1=
EXTT2=
EXTT3=
EXTT4=
EXTT5=
EXTT6=
EXTT7=
EXTT8=
EXTT9=
EXTT10=
EXTT11=
EXTT12=
PLAYORDER=
